<svg width="48" height="46" viewBox="0 0 48 46" fill="none" xmlns="http://www.w3.org/2000/svg">
<path d="M4.92208 45.2502C3.76819 45.2502 2.78394 44.8438 1.96933 44.0309C1.15644 43.218 0.75 42.2338 0.75 41.0781V21.2846C0.75 20.4494 0.972166 19.6761 1.4165 18.9648C1.85911 18.2535 2.47653 17.7317 3.26875 17.3993L10.7449 14.2606C11.4407 13.9816 12.102 14.0298 12.7289 14.4052C13.3541 14.779 13.6667 15.3559 13.6667 16.1361V18.0736L23.7262 14.0306C24.4219 13.7534 25.0721 13.8231 25.6766 14.2399C26.2811 14.6567 26.5833 15.2345 26.5833 15.9733V19.4169H47.25V41.0781C47.25 42.232 46.8436 43.2163 46.0307 44.0309C45.2178 44.8438 44.2335 45.2502 43.0779 45.2502H4.92208ZM4.92208 42.6669H43.0779C43.5412 42.6669 43.9218 42.5179 44.2197 42.22C44.5177 41.922 44.6667 41.5414 44.6667 41.0781V22.0002H24V16.7044L11.0833 21.8711V16.8336L4.27625 19.8586C3.9783 19.9913 3.74667 20.1816 3.58133 20.4296C3.416 20.6776 3.33333 20.9686 3.33333 21.3027V41.0807C3.33333 41.544 3.48231 41.9246 3.78025 42.2226C4.07819 42.5205 4.4588 42.6669 4.92208 42.6669ZM22.0134 36.3093H25.9866V28.363H22.0134V36.3093ZM11.6801 36.3093H15.6532V28.363H11.6801V36.3093ZM32.3467 36.3093H36.3199V28.363H32.3467V36.3093ZM47.25 19.4169H39.2029L41.6261 2.00523C41.6777 1.6229 41.8414 1.31634 42.1169 1.08557C42.3925 0.853066 42.7206 0.736816 43.1012 0.736816H43.8478C44.1612 0.736816 44.4307 0.844455 44.6563 1.05973C44.8802 1.27501 45.0197 1.54023 45.0748 1.8554L47.25 19.4169ZM4.92208 42.6669H3.33333H44.6667H4.92208Z" fill="white"/>
</svg>
