<svg width="61" height="62" viewBox="0 0 61 62" fill="none" xmlns="http://www.w3.org/2000/svg">
<path d="M55.4478 32.9375V48.4375C55.4478 49.2083 55.1536 49.9475 54.6299 50.4925C54.1063 51.0376 53.3961 51.3438 52.6555 51.3438H7.97974C7.23919 51.3438 6.52897 51.0376 6.00533 50.4925C5.48168 49.9475 5.1875 49.2083 5.1875 48.4375V32.9375C5.1875 32.1667 5.48168 31.4275 6.00533 30.8825C6.52897 30.3374 7.23919 30.0312 7.97974 30.0312H17.2872C17.534 30.0312 17.7708 30.1333 17.9453 30.315C18.1199 30.4967 18.2179 30.7431 18.2179 31C18.2179 31.2569 18.1199 31.5033 17.9453 31.685C17.7708 31.8667 17.534 31.9688 17.2872 31.9688H7.97974C7.73289 31.9688 7.49615 32.0708 7.3216 32.2525C7.14705 32.4342 7.04899 32.6806 7.04899 32.9375V48.4375C7.04899 48.6944 7.14705 48.9408 7.3216 49.1225C7.49615 49.3042 7.73289 49.4062 7.97974 49.4062H52.6555C52.9024 49.4062 53.1391 49.3042 53.3137 49.1225C53.4882 48.9408 53.5863 48.6944 53.5863 48.4375V32.9375C53.5863 32.6806 53.4882 32.4342 53.3137 32.2525C53.1391 32.0708 52.9024 31.9688 52.6555 31.9688H43.3481C43.1012 31.9688 42.8645 31.8667 42.6899 31.685C42.5154 31.5033 42.4173 31.2569 42.4173 31C42.4173 30.7431 42.5154 30.4967 42.6899 30.315C42.8645 30.1333 43.1012 30.0312 43.3481 30.0312H52.6555C53.3961 30.0312 54.1063 30.3374 54.6299 30.8825C55.1536 31.4275 55.4478 32.1667 55.4478 32.9375ZM29.6591 31.6854C29.7456 31.7755 29.8482 31.8469 29.9612 31.8957C30.0742 31.9444 30.1953 31.9695 30.3176 31.9695C30.4399 31.9695 30.5611 31.9444 30.6741 31.8957C30.787 31.8469 30.8897 31.7755 30.9761 31.6854L42.1451 20.0604C42.2316 19.9704 42.3002 19.8635 42.347 19.7459C42.3938 19.6283 42.4178 19.5023 42.4178 19.375C42.4178 19.2477 42.3938 19.1217 42.347 19.0041C42.3002 18.8865 42.2316 18.7796 42.1451 18.6896C42.0586 18.5996 41.9559 18.5282 41.843 18.4795C41.73 18.4308 41.6089 18.4057 41.4866 18.4057C41.3643 18.4057 41.2432 18.4308 41.1302 18.4795C41.0172 18.5282 40.9146 18.5996 40.8281 18.6896L31.2484 28.6605V5.8125C31.2484 5.55557 31.1503 5.30917 30.9758 5.12749C30.8012 4.94581 30.5645 4.84375 30.3176 4.84375C30.0708 4.84375 29.834 4.94581 29.6595 5.12749C29.4849 5.30917 29.3869 5.55557 29.3869 5.8125V28.6605L19.8072 18.6896C19.6325 18.5078 19.3957 18.4057 19.1487 18.4057C18.9017 18.4057 18.6648 18.5078 18.4902 18.6896C18.3155 18.8714 18.2174 19.1179 18.2174 19.375C18.2174 19.6321 18.3155 19.8786 18.4902 20.0604L29.6591 31.6854ZM46.1403 40.6875C46.1403 40.3043 46.0311 39.9297 45.8266 39.6111C45.6221 39.2925 45.3313 39.0441 44.9912 38.8975C44.651 38.7508 44.2768 38.7125 43.9157 38.7872C43.5546 38.862 43.2229 39.0465 42.9625 39.3175C42.7022 39.5884 42.5249 39.9337 42.4531 40.3095C42.3813 40.6853 42.4181 41.0749 42.559 41.4289C42.6999 41.783 42.9385 42.0856 43.2446 42.2985C43.5508 42.5114 43.9107 42.625 44.2788 42.625C44.7725 42.625 45.246 42.4209 45.5951 42.0575C45.9442 41.6942 46.1403 41.2014 46.1403 40.6875Z" fill="white"/>
</svg>
