<svg width="57" height="53" viewBox="0 0 57 53" fill="none" xmlns="http://www.w3.org/2000/svg">
<path d="M23.75 30.9167C23.75 32.088 24.2504 33.2114 25.1412 34.0397C26.032 34.868 27.2402 35.3333 28.5 35.3333C29.7598 35.3333 30.968 34.868 31.8588 34.0397C32.7496 33.2114 33.25 32.088 33.25 30.9167C33.25 29.7453 32.7496 28.6219 31.8588 27.7936C30.968 26.9653 29.7598 26.5 28.5 26.5C27.2402 26.5 26.032 26.9653 25.1412 27.7936C24.2504 28.6219 23.75 29.7453 23.75 30.9167Z" stroke="black" stroke-width="2" stroke-linecap="round" stroke-linejoin="round"/>
<path d="M40.3749 22.0835L35.6249 8.8335M16.6249 22.0835L21.3749 8.8335M11.8773 17.6668H45.1249C45.8098 17.6668 46.4866 17.8044 47.1089 18.0703C47.7312 18.3362 48.2843 18.7241 48.7303 19.2074C49.1763 19.6906 49.5046 20.2579 49.6927 20.8702C49.8809 21.4825 49.9244 22.1254 49.8203 22.7548L46.8397 38.5488C46.5809 40.1133 45.7283 41.5399 44.4361 42.5705C43.144 43.601 41.4977 44.1673 39.7954 44.1668H17.2044C15.5025 44.1667 13.8568 43.6002 12.5651 42.5697C11.2735 41.5393 10.4212 40.1129 10.1625 38.5488L7.1819 22.7548C7.0778 22.1254 7.12131 21.4825 7.30945 20.8702C7.49759 20.2579 7.82591 19.6906 8.2719 19.2074C8.71789 18.7241 9.27099 18.3362 9.8933 18.0703C10.5156 17.8044 11.1924 17.6668 11.8773 17.6668Z" stroke="black" stroke-width="2" stroke-linecap="round" stroke-linejoin="round"/>
</svg>
