<svg width="58" height="54" viewBox="0 0 58 54" fill="none" xmlns="http://www.w3.org/2000/svg">
<path d="M7.25 33.75C7.25 37.3304 8.77767 40.7642 11.497 43.2959C14.2162 45.8277 17.9044 47.25 21.75 47.25C25.5956 47.25 29.2838 45.8277 32.003 43.2959C34.7223 40.7642 36.25 37.3304 36.25 33.75C36.25 30.1696 34.7223 26.7358 32.003 24.2041C29.2838 21.6723 25.5956 20.25 21.75 20.25C17.9044 20.25 14.2162 21.6723 11.497 24.2041C8.77767 26.7358 7.25 30.1696 7.25 33.75Z" stroke="black" stroke-width="2" stroke-linecap="round" stroke-linejoin="round"/>
<path d="M34.3602 40.4438L50.3561 13.0523M14.6909 21.951L44.2153 7.03125M16.9167 33.75C16.9167 34.9435 17.4259 36.0881 18.3323 36.932C19.2387 37.7759 20.4681 38.25 21.75 38.25C23.0319 38.25 24.2613 37.7759 25.1677 36.932C26.0741 36.0881 26.5833 34.9435 26.5833 33.75C26.5833 32.5565 26.0741 31.4119 25.1677 30.568C24.2613 29.7241 23.0319 29.25 21.75 29.25C20.4681 29.25 19.2387 29.7241 18.3323 30.568C17.4259 31.4119 16.9167 32.5565 16.9167 33.75ZM41.0833 11.25C41.0833 12.4435 41.5926 13.5881 42.499 14.432C43.4054 15.2759 44.6348 15.75 45.9167 15.75C47.1985 15.75 48.4279 15.2759 49.3343 14.432C50.2408 13.5881 50.75 12.4435 50.75 11.25C50.75 10.0565 50.2408 8.91193 49.3343 8.06802C48.4279 7.22411 47.1985 6.75 45.9167 6.75C44.6348 6.75 43.4054 7.22411 42.499 8.06802C41.5926 8.91193 41.0833 10.0565 41.0833 11.25Z" stroke="black" stroke-width="2" stroke-linecap="round" stroke-linejoin="round"/>
<path d="M16.9167 33.75C16.9167 34.9435 17.426 36.0881 18.3324 36.932C19.2388 37.7759 20.4682 38.25 21.7501 38.25C23.032 38.25 24.2613 37.7759 25.1678 36.932C26.0742 36.0881 26.5834 34.9435 26.5834 33.75C26.5834 32.5565 26.0742 31.4119 25.1678 30.568C24.2613 29.7241 23.032 29.25 21.7501 29.25C20.4682 29.25 19.2388 29.7241 18.3324 30.568C17.426 31.4119 16.9167 32.5565 16.9167 33.75Z" stroke="black" stroke-width="2" stroke-linecap="round" stroke-linejoin="round"/>
</svg>
