<svg width="31" height="32" viewBox="0 0 31 32" fill="none" xmlns="http://www.w3.org/2000/svg">
<path d="M30.3006 16C30.3006 24.5786 23.6117 31.5 15.4003 31.5C7.18893 31.5 0.5 24.5786 0.5 16C0.5 7.42141 7.18893 0.5 15.4003 0.5C23.6117 0.5 30.3006 7.42141 30.3006 16Z" stroke="white"/>
<path d="M16.548 24V17.0642H18.8182L19.1581 14.1014H16.5479V12.2098C16.5479 11.3519 16.7598 10.7674 17.8542 10.7674L19.25 10.7667V8.11674C19.0086 8.08069 18.1799 8 17.2161 8C15.2036 8 13.8259 9.38072 13.8259 11.9164V14.1014H11.5498V17.0642H13.8259V23.9999L16.548 24Z" fill="white"/>
</svg>
