<svg width="65" height="61" viewBox="0 0 65 61" fill="none" xmlns="http://www.w3.org/2000/svg">
<path d="M37.9166 15.2159C38.6349 15.2159 39.3238 14.9487 39.8317 14.4731C40.3396 13.9976 40.6249 13.3525 40.6249 12.6799V10.1439C40.6249 9.47132 40.3396 8.82628 39.8317 8.35069C39.3238 7.8751 38.6349 7.60791 37.9166 7.60791H27.0833C26.365 7.60791 25.6761 7.8751 25.1682 8.35069C24.6603 8.82628 24.3749 9.47132 24.3749 10.1439V12.6799C24.3749 13.3525 24.6603 13.9976 25.1682 14.4731C25.6761 14.9487 26.365 15.2159 27.0833 15.2159M37.9166 15.2159H27.0833M37.9166 15.2159V17.7012C37.917 18.7786 38.3254 19.8209 39.0693 20.6428C39.8131 21.4647 40.8442 22.0129 41.9791 22.1899C44.3245 22.5551 46.0416 24.4546 46.0416 26.6787V48.184C46.0416 49.5292 45.4709 50.8192 44.4551 51.7704C43.4393 52.7216 42.0615 53.256 40.6249 53.256H24.3749C22.9383 53.256 21.5606 52.7216 20.5448 51.7704C19.5289 50.8192 18.9583 49.5292 18.9583 48.184V26.6787C18.9583 24.4546 20.6753 22.5551 23.0208 22.1899C25.3662 21.8247 27.0833 19.9253 27.0833 17.7012V15.2159M18.9583 30.4319H46.0416M18.9583 45.648H46.0416M29.7916 38.04H35.2083" stroke="black" stroke-width="2" stroke-linecap="round" stroke-linejoin="round"/>
</svg>
