<svg width="88" height="88" viewBox="0 0 88 88" fill="none" xmlns="http://www.w3.org/2000/svg">
<g clip-path="url(#clip0_1702_665)">
<path d="M80.6667 11H7.33333C5.38841 11 3.52315 11.7726 2.14788 13.1479C0.772617 14.5231 0 16.3884 0 18.3333L0 69.6667C0 71.6116 0.772617 73.4768 2.14788 74.8521C3.52315 76.2274 5.38841 77 7.33333 77H80.6667C82.6116 77 84.4769 76.2274 85.8521 74.8521C87.2274 73.4768 88 71.6116 88 69.6667V18.3333C88 16.3884 87.2274 14.5231 85.8521 13.1479C84.4769 11.7726 82.6116 11 80.6667 11ZM80.6667 69.6667H7.33333V18.3333H80.6667V69.6667ZM69.6667 66L77 58.6667L71.5 51.3333H65.45C64.6433 49.0233 64.1667 46.5667 64.1667 44C64.1667 41.4333 64.6433 38.9767 65.45 36.6667H71.5L77 29.3333L69.6667 22C64.9 25.6667 61.3433 30.7267 59.6933 36.6667C59.0333 39.0133 58.6667 41.47 58.6667 44C58.6667 46.53 59.0333 48.9867 59.6933 51.3333C61.3433 57.2367 64.9 62.3333 69.6667 66ZM33 44C35.9174 44 38.7153 42.8411 40.7782 40.7782C42.8411 38.7153 44 35.9174 44 33C44 30.0826 42.8411 27.2847 40.7782 25.2218C38.7153 23.1589 35.9174 22 33 22C30.0826 22 27.2847 23.1589 25.2218 25.2218C23.1589 27.2847 22 30.0826 22 33C22 35.9174 23.1589 38.7153 25.2218 40.7782C27.2847 42.8411 30.0826 44 33 44ZM33 29.3333C33.9725 29.3333 34.9051 29.7196 35.5927 30.4073C36.2804 31.0949 36.6667 32.0275 36.6667 33C36.6667 33.9725 36.2804 34.9051 35.5927 35.5927C34.9051 36.2804 33.9725 36.6667 33 36.6667C32.0275 36.6667 31.0949 36.2804 30.4073 35.5927C29.7196 34.9051 29.3333 33.9725 29.3333 33C29.3333 32.0275 29.7196 31.0949 30.4073 30.4073C31.0949 29.7196 32.0275 29.3333 33 29.3333ZM55 60.83C55 51.6633 40.4433 47.6667 33 47.6667C25.5567 47.6667 11 51.6633 11 60.83V66H55V60.83ZM20.1667 58.6667C22.8067 56.8333 28.2333 55 33 55C37.7667 55 43.1567 56.8333 45.8333 58.6667H20.1667Z" fill="#E5E5E5"/>
</g>
<defs>
<clipPath id="clip0_1702_665">
<rect width="88" height="88" fill="white"/>
</clipPath>
</defs>
</svg>
