<svg width="32" height="32" viewBox="0 0 32 32" fill="none" xmlns="http://www.w3.org/2000/svg">
<path d="M31.1405 16C31.1405 24.5786 24.4515 31.5 16.2402 31.5C8.02877 31.5 1.33984 24.5786 1.33984 16C1.33984 7.42141 8.02877 0.5 16.2402 0.5C24.4515 0.5 31.1405 7.42141 31.1405 16Z" stroke="white"/>
<path fill-rule="evenodd" clip-rule="evenodd" d="M11.1966 8.42004C11.6858 8.22228 12.246 8.08724 13.0658 8.04844C13.8872 8.00902 14.1499 8 16.2411 8C18.3323 8 18.5948 8.00966 19.4158 8.04844C20.235 8.0866 20.7948 8.22228 21.285 8.42004C21.7907 8.62426 22.2206 8.89754 22.6484 9.34278C23.0764 9.78804 23.3396 10.2339 23.5367 10.7599C23.7271 11.2682 23.857 11.85 23.8943 12.7018C23.9316 13.5548 23.9403 13.8275 23.9403 16C23.9403 18.1725 23.9316 18.4446 23.8943 19.2982C23.8576 20.1499 23.7271 20.7316 23.5367 21.2401C23.3396 21.766 23.0771 22.2127 22.6484 22.6572C22.2199 23.1018 21.7907 23.3752 21.2844 23.58C20.7948 23.7777 20.235 23.9128 19.4152 23.9516C18.5942 23.9909 18.3317 24 16.2405 24C14.1493 24 13.8872 23.9903 13.0658 23.9516C12.246 23.9128 11.6868 23.7777 11.1966 23.58C10.69 23.3752 10.2611 23.1016 9.83254 22.6572C9.40403 22.2129 9.14092 21.766 8.94434 21.2401C8.75399 20.7316 8.62401 20.15 8.58668 19.2982C8.54872 18.4452 8.54004 18.1725 8.54004 16C8.54004 13.8275 8.54872 13.5548 8.58668 12.7018C8.62401 11.8501 8.75399 11.2685 8.94434 10.7599C9.14092 10.2336 9.40397 9.78732 9.83254 9.34278C10.2611 8.89824 10.69 8.62426 11.1966 8.42004ZM16.2398 13.3333C14.8224 13.3333 13.6735 14.5273 13.6735 16C13.6735 17.4727 14.8224 18.6667 16.2398 18.6667C17.6574 18.6667 18.8069 17.4724 18.8069 16C18.8069 14.5276 17.6574 13.3333 16.2398 13.3333ZM11.9623 16C11.9623 13.5458 13.877 11.5556 16.2398 11.5556C18.6023 11.5556 20.5181 13.5455 20.5181 16C20.5181 18.4545 18.6023 20.4444 16.2398 20.4444C13.877 20.4444 11.9623 18.4542 11.9623 16ZM21.3736 11.5556C21.8462 11.5556 22.2292 11.1576 22.2292 10.6667C22.2292 10.1758 21.8462 9.77778 21.3736 9.77778C20.9011 9.77778 20.5181 10.1758 20.5181 10.6667C20.5181 11.1576 20.9011 11.5556 21.3736 11.5556Z" fill="white"/>
</svg>
