<svg width="32" height="32" viewBox="0 0 32 32" fill="none" xmlns="http://www.w3.org/2000/svg">
<path d="M30.8201 16C30.8201 24.5786 24.1312 31.5 15.9198 31.5C7.70846 31.5 1.01953 24.5786 1.01953 16C1.01953 7.42141 7.70846 0.5 15.9198 0.5C24.1312 0.5 30.8201 7.42141 30.8201 16Z" stroke="white"/>
<path d="M11.4517 10.1241C11.4515 10.5694 11.281 10.9963 10.9778 11.311C10.6746 11.6257 10.2635 11.8024 9.8349 11.8022C9.40632 11.8019 8.99537 11.6248 8.69247 11.3098C8.38956 10.9948 8.21951 10.5677 8.21973 10.1224C8.21994 9.67713 8.3904 9.25018 8.69361 8.93548C8.99681 8.62078 9.40793 8.44411 9.83652 8.44434C10.2651 8.44456 10.676 8.62166 10.979 8.93667C11.2819 9.25168 11.4519 9.67881 11.4517 10.1241ZM11.5002 13.0454H8.26821V23.5554H11.5002V13.0454ZM16.6067 13.0454H13.3909V23.5554H16.5743V18.0401C16.5743 14.9677 20.4285 14.6823 20.4285 18.0401V23.5554H23.62V16.8985C23.62 11.719 17.9156 11.9121 16.5743 14.4557L16.6067 13.0454Z" fill="white"/>
</svg>
