<svg version="1.2" xmlns="http://www.w3.org/2000/svg" viewBox="0 0 1920 350" width="1920" height="350">
	<title>mabsan_logo_sunum_V2-pdf</title>
	<style>
		.s0 { fill: #ff0000 } 
	</style>
	<path id="Path 132" class="s0" d="m674.3 288.3l15-89.4q3.6-21.9-1.6-31.8-5.1-9.9-19.6-9.9-16.1 0-28.7 11.9-12.6 12-16.1 32.9l-34.3-10q4.1-25 36-51.7 31.9-26.6 67.4-26.6 38.6 0 52.5 20.9 13.8 20.9 8 56.2l-16.3 97.5zm-127.3 0l15-89.4q3.7-21.9-2-31.8-5.6-9.9-20.1-9.9-16 0-28.6 11.9-12.6 12-16.1 32.9l-34.4-10q4.3-26.2 36.2-52.2 31.8-26.1 67.3-26.1 38.5 0 52.8 20.9 14.4 20.9 8.5 56.2l-16.3 97.5zm-127.8 0l29-173.1h60.8l-2.4 22.9-25.1 150.2zm491.6 0l-5.9-27.5 13.6-81.3q2.1-12.5-9.2-18.3-11.3-5.8-29.3-5.8l1.4-41.9q56.4 0 80.1 19.8 23.8 19.8 17.2 58.2l-16.3 96.8zm-134.8-137.5q5-8.2 15.6-15.1 10.6-6.9 24.9-11.8 14.4-4.9 31.1-7.6 16.7-2.8 33.8-2.8l2.3 19.3-3.7 22.6q-8.2 0-15.9 1.3-7.6 1.3-14 3.8-6.5 2.5-11.2 6.2-4.8 3.7-7.5 8.4zm60.1 139.9q-38.2 0-60-10.4-21.8-10.4-20.2-38.3 1.5-33.5 31.6-46.4 30.1-12.8 81.4-12.8h52.4l-5.8 35.5h-45.5q-27.4 0-38.6 4.3-11.1 4.3-12.4 13.1-1.2 8.9 7 12.8 8.3 3.9 27.6 3.9 22.4 0 38.9-7.6 16.4-7.5 18-16.3l23.1 10.5q-4.2 25.2-31.3 38.4-27.1 13.3-66.2 13.3zm269.8-1.1q-39 0-64.3-16.6-25.2-16.5-23-31l31.5-28.2q-2.1 12.8 10.9 22.5 13.1 9.8 32 9.8 20.4 0 33.9-10.4 13.4-10.3 16.8-35 3-23.2-6.1-33.3-9.2-10.2-29.9-10.2-18.7 0-35 10-16.4 9.9-18.5 22.2l-21.9-28.2q2.6-14.5 33.4-31 30.8-16.4 69.7-16.4 40.2 0 58.1 23 17.9 22.9 13.6 62.4-4.8 42.8-32.9 66.6-28.2 23.8-68.3 23.8zm-130.6-1.4l38.5-239.2h62.5l-34.2 214-7.9 25.2zm328 1.7q-39 0-67.5-9.1-28.5-9.2-36.9-25.2l56-28.3q3.1 10 18.6 15.6 15.5 5.7 35.2 5.7 20 0 33-3.2 12.9-3.1 13.9-9 1.1-7-11.8-9-13-1.9-40.3-4.9-50.1-5.2-71.4-16.2-21.3-11-16.5-38.6 4.6-29.3 38-41.7 33.4-12.5 76.5-12.5 41.2 0 65.4 8.8 24.3 8.8 31.7 24.7l-53.4 27.7q-3.6-9.4-17.3-14.7-13.8-5.4-34.6-5.4-19.3 0-32.2 3.1-12.8 3.1-13.5 8.8-1 6.6 13 8.6 14 2 40 4.8 47.4 4.7 69.6 15.5 22.2 10.9 17.7 38.4-4.7 30.1-37.4 43.1-32.7 13-75.8 13zm276.4-1.7l-5.9-27.4 13.6-81.4q2.1-12.5-9.2-18.3-11.2-5.8-29.3-5.8l1.4-41.8q56.4 0 80.2 19.7 23.7 19.8 17.1 58.3l-16.2 96.7zm-134.9-137.4q5.1-8.2 15.6-15.1 10.6-6.9 25-11.9 14.3-4.9 31.1-7.6 16.7-2.7 33.8-2.7l2.2 19.2-3.6 22.6q-8.3 0-15.9 1.4-7.7 1.3-14.1 3.8-6.4 2.5-11.2 6.1-4.8 3.7-7.4 8.4zm60.1 140q-38.3 0-60-10.5-21.8-10.4-20.3-38.3 1.6-33.5 31.7-46.3 30.1-12.9 81.3-12.9h52.4l-5.7 35.6h-45.6q-27.4 0-38.5 4.2-11.2 4.3-12.4 13.1-1.3 9 7 12.9 8.2 3.8 27.6 3.8 22.4 0 38.8-7.5 16.5-7.6 18-16.4l23.1 10.6q-4.2 25.1-31.3 38.4-27.1 13.3-66.1 13.3zm283.3-2.5l14.1-84.8q4.5-26.4-2.6-36.5-7.2-10-24.5-10-18.9 0-35.3 14.6-16.3 14.6-20.1 36.8l-27.4-17.2q3.6-21.7 35.4-49.7 31.8-28 76.5-28 37.8 0 53.1 21.9 15.2 21.9 8.2 64l-15 88.9zm-144.2 0l29.1-173.2h61.5l-7.6 50.5-20.7 122.7zm-1495-168.1l43.5 43.5 71.8-71.8 113.3 113.3 42.8-42.8-156.5-156.6zm-148.7 40l43.5 43.5 112.6-112.7 0.2 0.2 42.8-42.8-43.4-43.4zm206.4 152l85.2-85.6-71.5-71.9 42.5-42.5 102.8 102.5-86.3 86.4h-26l-44.5 43.9-43.2-43.9h-25.9l-86.6-86.4 85.1-83.8 43.5 43.5-56.8 56.7zm64-82.9l-62.6 62.5-62.5-62.5 62.5-62.5zm403.7 59l15-89.5q3.7-21.8-1.5-31.8-5.2-9.9-19.6-9.9-16.1 0-28.7 12-12.6 12-16.1 32.8l-34.3-10q4-24.9 36-51.6 31.9-26.6 67.3-26.6 38.7 0 52.5 20.9 13.9 20.9 8 56.2l-16.2 97.5zm-127.3 0l15-89.5q3.6-21.8-2-31.8-5.6-9.9-20.2-9.9-15.9 0-28.5 12-12.6 12-16.1 32.8l-34.5-10q4.3-26.1 36.2-52.2 31.9-26 67.3-26 38.5 0 52.9 20.9 14.3 20.9 8.4 56.2l-16.2 97.5zm-127.9 0l29-173.2h60.8l-2.4 22.9-25.1 150.3zm491.6 0l-5.9-27.5 13.6-81.4q2.1-12.4-9.2-18.2-11.2-5.8-29.3-5.8l1.4-41.9q56.4 0 80.2 19.8 23.7 19.7 17.1 58.2l-16.2 96.8zm-134.9-137.5q5.1-8.2 15.6-15.1 10.6-6.9 25-11.8 14.3-5 31.1-7.7 16.7-2.7 33.8-2.7l2.2 19.2-3.6 22.7q-8.3 0-15.9 1.3-7.7 1.3-14.1 3.8-6.4 2.5-11.2 6.2-4.8 3.6-7.4 8.3zm60.1 140q-38.3 0-60.1-10.4-21.7-10.5-20.2-38.4 1.6-33.4 31.7-46.3 30.1-12.8 81.3-12.8h52.4l-5.7 35.5h-45.6q-27.4 0-38.5 4.3-11.2 4.2-12.4 13-1.3 9 7 12.9 8.2 3.9 27.6 3.9 22.4 0 38.8-7.6 16.5-7.6 18-16.4l23.1 10.6q-4.2 25.1-31.3 38.4-27.1 13.3-66.1 13.3zm269.7-1.2q-38.9 0-64.2-16.5-25.3-16.5-23-31.1l31.5-28.2q-2.1 12.8 10.9 22.6 13 9.8 31.9 9.8 20.5 0 33.9-10.4 13.4-10.4 16.8-35 3.1-23.2-6.1-33.4-9.2-10.1-29.9-10.1-18.6 0-35 9.9-16.4 9.9-18.5 22.3l-21.8-28.2q2.5-14.6 33.3-31 30.8-16.5 69.7-16.5 40.2 0 58.2 23 17.9 23 13.5 62.5-4.7 42.7-32.9 66.5-28.1 23.8-68.3 23.8zm-130.5-1.3l38.5-239.2h62.4l-34.1 213.9-8 25.3zm328 1.6q-38.9 0-67.4-9.1-28.5-9.1-36.9-25.1l56-28.3q3.1 9.9 18.5 15.6 15.5 5.7 35.3 5.7 20 0 32.9-3.2 13-3.2 14-9 1.1-7.1-11.9-9-12.9-1.9-40.2-5-50.2-5.1-71.4-16.1-21.3-11.1-16.6-38.7 4.7-29.2 38.1-41.7 33.4-12.5 76.5-12.5 41.2 0 65.4 8.9 24.2 8.8 31.6 24.6l-53.3 27.8q-3.7-9.4-17.4-14.8-13.7-5.3-34.6-5.3-19.3 0-32.1 3-12.8 3.1-13.5 8.9-1 6.6 13 8.5 14 2 39.9 4.8 47.5 4.7 69.7 15.6 22.2 10.9 17.7 38.3-4.8 30.1-37.5 43.1-32.7 13-75.8 13zm276.5-1.6l-5.9-27.5 13.6-81.3q2.1-12.5-9.2-18.3-11.3-5.8-29.4-5.8l1.4-41.9q56.5 0 80.2 19.8 23.8 19.7 17.2 58.2l-16.3 96.8zm-134.8-137.5q5-8.2 15.6-15.1 10.6-6.9 24.9-11.8 14.4-4.9 31.1-7.6 16.7-2.8 33.8-2.8l2.3 19.3-3.7 22.6q-8.2 0-15.9 1.3-7.6 1.3-14 3.8-6.5 2.5-11.3 6.2-4.7 3.7-7.4 8.4zm60.1 139.9q-38.2 0-60-10.4-21.8-10.4-20.2-38.3 1.5-33.5 31.6-46.4 30.1-12.8 81.4-12.8h52.3l-5.7 35.5h-45.5q-27.5 0-38.6 4.3-11.1 4.3-12.4 13.1-1.2 8.9 7 12.8 8.3 3.9 27.6 3.9 22.4 0 38.9-7.6 16.4-7.5 18-16.3l23.1 10.5q-4.2 25.2-31.3 38.4-27.1 13.3-66.2 13.3zm283.3-2.5l14.2-84.7q4.5-26.4-2.7-36.5-7.1-10.1-24.5-10.1-18.9 0-35.2 14.7-16.3 14.6-20.1 36.7l-27.5-17.1q3.7-21.8 35.5-49.7 31.8-28 76.4-28 37.8 0 53.1 21.9 15.3 21.8 8.3 64l-15 88.8zm-144.2 0l29.1-173.1h61.5l-7.6 50.5-20.7 122.6zm-1495-168l43.4 43.5 71.9-71.9 113.3 113.4 42.8-42.8-156.6-156.6zm-148.7 40l43.5 43.4 112.6-112.6 0.2 0.2 42.8-42.8-43.4-43.5zm206.5 152.1l85.2-85.7-71.5-71.9 42.4-42.4 102.8 102.5-86.3 86.4h-26l-44.4 43.9-43.3-43.9h-25.9l-86.5-86.4 85.1-83.9 43.5 43.5-56.8 56.8zm63.9-82.9l-62.5 62.5-62.5-62.5 62.5-62.5z"/>
</svg>