<svg width="47" height="37" viewBox="0 0 47 37" fill="none" xmlns="http://www.w3.org/2000/svg">
<path d="M4.17208 36.1667C2.98375 36.1667 1.99175 35.7688 1.19608 34.9732C0.398695 34.1758 0 33.1829 0 31.9946V4.17208C0 2.98375 0.398695 1.99175 1.19608 1.19608C1.99175 0.398694 2.98375 0 4.17208 0H42.3279C43.5163 0 44.5083 0.398694 45.3039 1.19608C46.1013 1.99175 46.5 2.98375 46.5 4.17208V31.9946C46.5 33.1829 46.1022 34.1749 45.3065 34.9706C44.5091 35.768 43.5163 36.1667 42.3279 36.1667H4.17208ZM23.25 18.3804L2.58333 4.86958V31.9946C2.58333 32.4579 2.73231 32.8385 3.03025 33.1364C3.32819 33.4344 3.7088 33.5833 4.17208 33.5833H42.3279C42.7912 33.5833 43.1718 33.4344 43.4697 33.1364C43.7677 32.8385 43.9167 32.4579 43.9167 31.9946V4.86958L23.25 18.3804ZM23.25 15.5L43.121 2.58333H3.379L23.25 15.5ZM2.58333 4.86958V2.58333V31.9946C2.58333 32.4579 2.73231 32.8385 3.03025 33.1364C3.32819 33.4344 3.7088 33.5833 4.17208 33.5833H2.58333V4.86958Z" fill="white"/>
</svg>
