<svg width="73" height="119" viewBox="0 0 73 119" fill="none" xmlns="http://www.w3.org/2000/svg">
<path d="M41.0774 3.328L63.4774 3.328L63.4774 4.896L50.2294 13.888L63.4774 22.88L63.4774 24.448L41.0774 24.448L41.0774 22.784L60.5334 22.784L47.6374 13.92L47.6374 13.792L60.5334 4.928L41.0774 4.928L41.0774 3.328ZM41.0774 37.5093L63.4774 37.5093L63.4774 53.4453L61.9414 53.4453L61.9414 39.1733L53.1414 39.1733L53.1414 52.0053L51.6054 52.0053L51.6054 39.1733L42.6134 39.1733L42.6134 53.6053L41.0774 53.6053L41.0774 37.5093ZM41.0774 65.3467L63.4774 65.3467L63.4774 66.9147L43.9894 82.3707L63.4774 82.3708L63.4774 83.9708L41.0774 83.9707L41.0774 82.7227L60.9814 66.9467L41.0774 66.9467L41.0774 65.3467ZM40.7254 105.86C40.7254 100.484 44.1174 96.676 50.3894 96.676L63.4774 96.676L63.4774 98.34L50.5494 98.34C45.2054 98.34 42.2294 101.156 42.2294 105.924C42.2294 110.436 44.9814 113.38 50.3894 113.38L63.4774 113.38L63.4774 115.044L50.5814 115.044C44.1814 115.044 40.7254 111.3 40.7254 105.86Z" fill="white"/>
<path d="M1.11787 9.5413L4.58662 7.57476L8.05536 9.5413V13.4587L4.58662 15.4252L1.11787 13.4587V9.5413Z" stroke="white"/>
<path d="M22.3128 13.4587L18.844 15.4252L15.3753 13.4587L15.3753 9.5413L18.844 7.57476L22.3128 9.5413L22.3128 13.4587Z" stroke="white"/>
<path d="M15.2798 12L8.15113 12" stroke="white"/>
</svg>
