<svg width="54" height="51" viewBox="0 0 54 51" fill="none" xmlns="http://www.w3.org/2000/svg">
<path d="M12.5552 28.0508C12.5552 30.9205 13.7726 33.6727 15.9397 35.7019C18.1068 37.7311 21.046 38.871 24.1107 38.871C27.1755 38.871 30.1147 37.7311 32.2817 35.7019C34.4488 33.6727 35.6663 30.9205 35.6663 28.0508C35.6663 25.181 34.4488 22.4289 32.2817 20.3997C30.1147 18.3705 27.1755 17.2305 24.1107 17.2305C21.046 17.2305 18.1068 18.3705 15.9397 20.3997C13.7726 22.4289 12.5552 25.181 12.5552 28.0508Z" stroke="black" stroke-width="2" stroke-linecap="round" stroke-linejoin="round"/>
<path d="M46.8178 22.6411C47.072 24.4264 47.2222 26.7311 47.2222 28.0512C47.2222 32.3313 45.8668 36.5153 43.3273 40.0741C40.7878 43.6329 37.1784 46.4066 32.9554 48.0445C28.7323 49.6824 24.0855 50.111 19.6024 49.276C15.1192 48.441 11.0012 46.3799 7.7691 43.3534C4.53695 40.3269 2.33583 36.4709 1.44408 32.2731C0.552337 28.0752 1.01001 23.724 2.75924 19.7697C4.50846 15.8154 7.47067 12.4356 11.2713 10.0577C15.0719 7.67984 19.5402 6.41064 24.1111 6.41064H41.4444" stroke="black" stroke-width="2" stroke-linecap="round" stroke-linejoin="round"/>
<path d="M41.4444 17.2304C37.0793 17.5226 31.3016 17.5226 24.1111 17.2304V28.0507M24.1111 28.0507L14 23.9931M24.1111 28.0507L31.3333 36.1659M24.1111 28.0507L16.8889 36.1659M24.1111 28.0507L34.2222 23.9931M41.4444 3.70507C41.4444 2.98764 41.7488 2.2996 42.2906 1.7923C42.8323 1.285 43.5672 1 44.3333 1H50.1111C50.8773 1 51.6121 1.285 52.1539 1.7923C52.6956 2.2996 53 2.98764 53 3.70507V19.9355C53 20.6529 52.6956 21.341 52.1539 21.8483C51.6121 22.3556 50.8773 22.6406 50.1111 22.6406H44.3333C43.5672 22.6406 42.8323 22.3556 42.2906 21.8483C41.7488 21.341 41.4444 20.6529 41.4444 19.9355V3.70507Z" stroke="black" stroke-width="2" stroke-linecap="round" stroke-linejoin="round"/>
</svg>
