<svg width="41" height="41" viewBox="0 0 41 41" fill="none" xmlns="http://www.w3.org/2000/svg">
<path d="M22.0922 15.691V2.22017C22.0922 1.63728 22.2904 1.14928 22.6869 0.75617C23.0834 0.363059 23.5748 0.166504 24.1611 0.166504H38.6206C39.2052 0.166504 39.6924 0.363059 40.0821 0.75617C40.4718 1.14928 40.6667 1.63728 40.6667 2.22017V11.2126C40.6667 11.7938 40.4701 12.2818 40.077 12.6766C39.6839 13.0697 39.1959 13.2663 38.613 13.2663H26.9798L23.8612 16.3849C23.5358 16.7102 23.1597 16.7907 22.7327 16.6263C22.3057 16.462 22.0922 16.1502 22.0922 15.691ZM24.6338 10.7246H38.125V2.70817H24.6338V10.7246ZM37.9496 40.8332C33.6627 40.8332 29.2698 39.7606 24.7711 37.6154C20.2706 35.4686 16.0904 32.4567 12.2305 28.5798C8.36717 24.7012 5.36292 20.5202 3.21775 16.0367C1.07258 11.5532 0 7.16964 0 2.88609C0 2.11003 0.254167 1.4636 0.762501 0.946796C1.27083 0.426602 1.90625 0.166504 2.66875 0.166504H8.95429C9.64563 0.166504 10.2488 0.38424 10.764 0.819712C11.2791 1.25518 11.6273 1.81266 11.8086 2.49213L13.0693 8.554C13.1879 9.26567 13.1667 9.88668 13.0057 10.417C12.8464 10.9474 12.5652 11.382 12.1619 11.7209L6.58292 16.9212C7.6267 18.8156 8.77977 20.5744 10.0421 22.1977C11.3045 23.8226 12.6516 25.362 14.0834 26.8159C15.5575 28.29 17.1452 29.6625 18.8465 30.9334C20.5477 32.2025 22.415 33.4005 24.4483 34.5273L29.8849 28.9941C30.2984 28.5484 30.7635 28.2545 31.2803 28.1121C31.7971 27.9715 32.3681 27.9435 32.9934 28.0283L38.341 29.1212C39.0307 29.2906 39.5907 29.638 40.0211 30.1633C40.4515 30.6902 40.6667 31.2943 40.6667 31.9755V38.1644C40.6667 38.9269 40.4074 39.5623 39.8889 40.0707C39.3721 40.579 38.7257 40.8332 37.9496 40.8332ZM5.38833 14.5371L10.2683 10.0485C10.431 9.91973 10.5361 9.74096 10.5835 9.51221C10.6343 9.28346 10.6259 9.07166 10.5581 8.8768L9.43213 3.48846C9.36604 3.22921 9.25167 3.03435 9.089 2.90388C8.92633 2.77341 8.71538 2.70817 8.45613 2.70817H3.24063C3.04576 2.70817 2.8831 2.77341 2.75263 2.90388C2.62215 3.03435 2.55692 3.19702 2.55692 3.39188C2.60606 5.12868 2.87717 6.94174 3.37025 8.83105C3.86672 10.722 4.53772 12.6241 5.38833 14.5371ZM26.868 35.7193C28.5861 36.57 30.4161 37.1994 32.358 37.6078C34.3032 38.0145 35.9976 38.2322 37.4413 38.261C37.6362 38.261 37.7988 38.1966 37.9293 38.0678C38.0598 37.9374 38.125 37.7739 38.125 37.5773V32.4762C38.125 32.2152 38.0598 32.0034 37.9293 31.8408C37.7988 31.6764 37.604 31.562 37.3447 31.4976L32.6426 30.5343C32.4461 30.4699 32.2741 30.4615 32.1267 30.5089C31.9809 30.5598 31.8268 30.6657 31.6641 30.8266L26.868 35.7193Z" fill="white"/>
</svg>
