<svg width="55" height="60" viewBox="0 0 55 60" fill="none" xmlns="http://www.w3.org/2000/svg">
<path d="M45.0817 29.9999C45.0828 30.2462 45.0389 30.4903 44.9527 30.7179C44.8665 30.9454 44.7396 31.1518 44.5796 31.3249L30.8839 46.3249C30.5594 46.6561 30.1302 46.8364 29.6866 46.8278C29.2431 46.8193 28.82 46.6225 28.5063 46.279C28.1926 45.9354 28.013 45.472 28.0051 44.9862C27.9973 44.5004 28.162 44.0303 28.4644 43.6749L40.9502 29.9999L28.4644 16.3249C28.162 15.9695 27.9973 15.4993 28.0051 15.0136C28.013 14.5278 28.1926 14.0644 28.5063 13.7208C28.82 13.3773 29.2431 13.1805 29.6866 13.172C30.1302 13.1634 30.5594 13.3437 30.8839 13.6749L44.5796 28.6749C44.7396 28.848 44.8665 29.0544 44.9527 29.2819C45.0389 29.5094 45.0828 29.7535 45.0817 29.9999Z" fill="white"/>
<path d="M45.0816 30C45.0757 30.4953 44.8934 30.9684 44.5736 31.3187C44.2539 31.6689 43.8218 31.8685 43.3696 31.875L11.4131 31.875C10.9591 31.875 10.5236 31.6775 10.2026 31.3258C9.88154 30.9742 9.70117 30.4973 9.70117 30C9.70117 29.5027 9.88154 29.0258 10.2026 28.6742C10.5236 28.3225 10.9591 28.125 11.4131 28.125L43.3696 28.125C43.8218 28.1315 44.2539 28.3311 44.5736 28.6813C44.8934 29.0316 45.0757 29.5047 45.0816 30Z" fill="white"/>
</svg>
