<svg width="62" height="60" viewBox="0 0 62 60" fill="none" xmlns="http://www.w3.org/2000/svg">
<path d="M25.833 31.2061C25.1479 31.2061 24.4908 31.4691 24.0063 31.9373C23.5218 32.4055 23.2497 33.0405 23.2497 33.7026V51.1781H38.7497V33.7026C38.7497 33.0405 38.4775 32.4055 37.993 31.9373C37.5086 31.4691 36.8515 31.2061 36.1663 31.2061H25.833ZM28.4163 18.7236V6.24113C28.4163 5.57901 28.6885 4.94402 29.173 4.47584C29.6575 4.00765 30.3145 3.74463 30.9997 3.74463C31.6848 3.74463 32.3419 4.00765 32.8264 4.47584C33.3108 4.94402 33.583 5.57901 33.583 6.24113V18.7236H36.1663C36.8515 18.7236 37.5086 18.9866 37.993 19.4548C38.4775 19.923 38.7497 20.558 38.7497 21.2201V26.6375C41.7593 27.6686 43.9163 30.4422 43.9163 33.7026V51.1781C43.9163 52.5023 43.372 53.7723 42.4031 54.7087C41.4341 55.6451 40.12 56.1711 38.7497 56.1711H23.2497C21.8794 56.1711 20.5652 55.6451 19.5963 54.7087C18.6274 53.7723 18.083 52.5023 18.083 51.1781V33.7026C18.083 30.4422 20.2401 27.6686 23.2497 26.6375V21.2201C23.2497 20.558 23.5218 19.923 24.0063 19.4548C24.4908 18.9866 25.1479 18.7236 25.833 18.7236H28.4163ZM28.4163 23.7166V26.2131H33.583V23.7166H28.4163Z" fill="white"/>
</svg>
