<svg width="32" height="32" viewBox="0 0 32 32" fill="none" xmlns="http://www.w3.org/2000/svg">
<path d="M30.66 16C30.66 24.5786 23.9711 31.5 15.7597 31.5C7.5483 31.5 0.859375 24.5786 0.859375 16C0.859375 7.42141 7.5483 0.5 15.7597 0.5C23.9711 0.5 30.66 7.42141 30.66 16Z" stroke="white"/>
<path d="M14.2197 18.4004L18.2161 16.0004L14.2197 13.6004V18.4004ZM23.1211 12.1364C23.2212 12.5124 23.2905 13.0164 23.3367 13.6564C23.3906 14.2964 23.4137 14.8484 23.4137 15.3284L23.4599 16.0004C23.4599 17.7524 23.3367 19.0404 23.1211 19.8644C22.9286 20.5844 22.482 21.0484 21.789 21.2484C21.427 21.3524 20.7648 21.4244 19.7484 21.4724C18.7474 21.5284 17.8311 21.5524 16.9841 21.5524L15.7597 21.6004C12.5334 21.6004 10.5236 21.4724 9.7305 21.2484C9.03749 21.0484 8.59088 20.5844 8.39838 19.8644C8.29828 19.4884 8.22897 18.9844 8.18277 18.3444C8.12887 17.7044 8.10577 17.1524 8.10577 16.6724L8.05957 16.0004C8.05957 14.2484 8.18277 12.9604 8.39838 12.1364C8.59088 11.4164 9.03749 10.9524 9.7305 10.7524C10.0924 10.6484 10.7546 10.5764 11.771 10.5284C12.7721 10.4724 13.6884 10.4484 14.5354 10.4484L15.7597 10.4004C18.9861 10.4004 20.9958 10.5284 21.789 10.7524C22.482 10.9524 22.9286 11.4164 23.1211 12.1364Z" fill="white"/>
</svg>
